<svg xmlns="http://www.w3.org/2000/svg" viewBox="0 0 900 420">
  <path d="M80 260C130 90 320 80 390 170c60 77 95 58 135-18 38-72 190-78 260 22 76 109-36 194-143 150-105-44-170-12-232 30-79 54-190 28-239-38-29-39-61-28-91-56z"
        fill="none" stroke="#2A2A2A" stroke-width="24" stroke-linecap="round"/>
  <path d="M80 260C130 90 320 80 390 170c60 77 95 58 135-18 38-72 190-78 260 22 76 109-36 194-143 150-105-44-170-12-232 30-79 54-190 28-239-38-29-39-61-28-91-56z"
        fill="none" stroke="#D4001F" stroke-width="3" stroke-dasharray="10 16"/>
</svg>
